<svg width="current" height="current" viewBox="0 0 20 17" fill="none" xmlns="http://www.w3.org/2000/svg">
<path d="M6 8C8.2091 8 10 6.2091 10 4C10 1.79086 8.2091 0 6 0C3.79086 0 2 1.79086 2 4C2 6.2091 3.79086 8 6 8ZM15 8C16.6569 8 18 6.6569 18 5C18 3.34315 16.6569 2 15 2C13.3431 2 12 3.34315 12 5C12 6.6569 13.3431 8 15 8ZM2.25 10C1.00736 10 0 11.0074 0 12.25V12.5C0 12.5 0 17 6 17C12 17 12 12.5 12 12.5V12.25C12 11.0074 10.9926 10 9.75 10H2.25ZM15.0002 15.5C13.829 15.5 12.9321 15.3189 12.2453 15.0416C12.5873 14.4667 12.7719 13.9142 12.8724 13.4836C12.9328 13.2247 12.9645 13.0027 12.9813 12.8353C12.9897 12.7512 12.9944 12.68 12.997 12.6237C12.9983 12.5955 12.9991 12.5709 12.9996 12.5503L13.0001 12.5222L13.0002 12.5103V12.505V12.5024C13.0002 12.4992 13.0002 12.5 13.0002 12.5V12.25C13.0002 11.3779 12.6567 10.5861 12.0977 10.0023C12.1316 10.0008 12.1658 10 12.2002 10H17.8002C19.0152 10 20.0002 10.985 20.0002 12.2C20.0002 12.2 20.0002 15.5 15.0002 15.5Z" fill="#212121"/>
</svg>
